<svg width="37" height="37" viewBox="0 0 37 37" fill="none" xmlns="http://www.w3.org/2000/svg">
<path d="M34.7418 15H28.2368V35.0659H26.0702V19.726H19.5652V35.0659H17.3986V15.5719H10.8936V35.0659H8.76315V24.2571H2.25823V35.0659H0V37.2339H37V35.0659H34.7418V15ZM6.59402 26.4251V28.593H4.42743V26.4251H6.59402ZM4.42743 35.0659V30.761H6.59402V35.0659H4.42743ZM15.2294 17.7399V19.9078H13.0628V17.7399H15.2294ZM13.0628 35.0659V22.0758H15.2294V35.0659H13.0628ZM23.901 21.894V24.062H21.7344V21.894H23.901ZM21.7344 35.0659V26.2299H23.901V35.0659H21.7344ZM32.5726 17.168V19.3359H30.406V17.168H32.5726ZM30.406 35.0659V21.5039H32.5726V35.0659H30.406Z" fill="#95E1D3"/>
<path d="M30.5108 0V2.16797H33.298L23.3087 12.1577L15.0332 3.88182L0.00750732 18.9081L1.54178 20.4406L15.0332 6.94877L23.3087 15.2246L34.8308 3.7021V6.49928H37V0L30.5108 0Z" fill="#95E1D3"/>
</svg>
